<svg width="70" height="45" viewBox="0 0 70 45" fill="none" xmlns="http://www.w3.org/2000/svg">
<path d="M14.52 20.28C13.4267 20.2267 12.52 20.2 11.8 20.2C11.1067 20.1733 10.52 20.2 10.04 20.28C9.58667 20.36 9.22667 20.5067 8.96 20.72C8.69333 20.9067 8.45333 21.1733 8.24 21.52C8.05333 21.8667 7.85333 22.3067 7.64 22.84C7.45333 23.3467 7.2 23.9733 6.88 24.72C6.08 26.56 5.50667 28.44 5.16 30.36C4.81333 32.28 4.49333 34.2133 4.2 36.16C4.17333 36.3467 4.16 36.52 4.16 36.68C4.16 36.84 4.13333 37 4.08 37.16C3.94667 37.64 3.68 37.9467 3.28 38.08C2.90667 38.24 2.56 38.1467 2.24 37.8C1.86667 37.4267 1.54667 37.0133 1.28 36.56C1.01333 36.1333 0.946667 35.6133 1.08 35C1.50667 32.8133 2 30.6533 2.56 28.52C3.12 26.3867 3.84 24.28 4.72 22.2C4.93333 21.6667 5.08 21.1067 5.16 20.52C5.26667 19.9333 5.38667 19.2933 5.52 18.6C5.81333 18.0933 6.12 17.5467 6.44 16.96C6.78667 16.3467 7.10667 15.72 7.4 15.08C8.41333 12.8933 9.38667 10.72 10.32 8.56C11.28 6.37333 12.2667 4.2 13.28 2.04C13.76 0.999998 14.2533 0.439998 14.76 0.359999C15.2933 0.279999 15.9867 0.639999 16.84 1.44C17.2933 1.86667 17.7067 2.32 18.08 2.8C18.48 3.25333 18.8 3.74667 19.04 4.28C19.28 4.78667 19.4533 5.34667 19.56 5.96C19.6667 6.54667 19.6667 7.18667 19.56 7.88C19.24 10.0133 18.9733 12.1333 18.76 14.24C18.5467 16.3467 18.3467 18.48 18.16 20.64C18.0267 22.2933 17.9333 23.9333 17.88 25.56C17.8267 27.1867 17.76 28.8267 17.68 30.48C17.68 30.6933 17.6667 30.8533 17.64 30.96C17.6133 31.1733 17.5867 31.4 17.56 31.64C17.56 31.88 17.52 32.0933 17.44 32.28C17.3867 32.4933 17.28 32.6667 17.12 32.8C16.96 32.9333 16.72 33.0133 16.4 33.04C16.1867 33.0667 15.9733 33.0133 15.76 32.88C15.5467 32.7733 15.3467 32.6133 15.16 32.4C14.9733 32.1867 14.8267 31.9333 14.72 31.64C14.6133 31.3733 14.56 31.0933 14.56 30.8C14.5067 29.68 14.4933 28.5733 14.52 27.48C14.5467 26.36 14.56 25.24 14.56 24.12C14.56 23.5067 14.5467 22.8933 14.52 22.28C14.52 21.64 14.52 20.9733 14.52 20.28ZM14.52 17.6C14.6533 15.9733 14.7867 14.4 14.92 12.88C15.0533 11.36 15.1867 9.74667 15.32 8.04C14.8667 8.6 14.3733 9.30667 13.84 10.16C13.3333 11.0133 12.8533 11.9067 12.4 12.84C11.9467 13.7467 11.56 14.6267 11.24 15.48C10.92 16.3067 10.72 16.9733 10.64 17.48C10.9333 17.5067 11.2133 17.5333 11.48 17.56C11.7467 17.5867 12.0267 17.6133 12.32 17.64C12.64 17.64 12.9733 17.64 13.32 17.64C13.6667 17.64 14.0667 17.6267 14.52 17.6ZM28.5928 15.16C28.2195 15.8533 27.8595 16.5067 27.5128 17.12C27.1661 17.7333 26.8461 18.3467 26.5528 18.96C26.1795 19.7333 26.0195 20.4933 26.0728 21.24C26.1528 21.9867 26.3795 22.7333 26.7528 23.48C27.1795 24.2533 27.5928 25.0267 27.9928 25.8C28.4195 26.5467 28.7528 27.32 28.9928 28.12C29.2328 28.9467 29.3528 29.6667 29.3528 30.28C29.3795 30.92 29.2461 31.44 28.9528 31.84C28.6595 32.24 28.1795 32.52 27.5128 32.68C26.8728 32.84 26.0061 32.84 24.9128 32.68C23.6328 32.4933 22.5661 32.0267 21.7128 31.28C20.8595 30.56 20.2995 29.4667 20.0328 28C21.0461 28.48 22.0595 28.8133 23.0728 29C24.0861 29.16 25.1395 28.9733 26.2328 28.44C26.3661 27.5867 26.2595 26.8133 25.9128 26.12C25.5928 25.4 25.2728 24.6933 24.9528 24C24.7395 23.5467 24.5128 23.0933 24.2728 22.64C24.0595 22.16 23.8595 21.68 23.6728 21.2C23.5128 20.72 23.3928 20.2267 23.3128 19.72C23.2328 19.2133 23.2195 18.6933 23.2728 18.16C23.3261 17.7867 23.3795 17.4267 23.4328 17.08C23.5128 16.7067 23.6195 16.36 23.7528 16.04C24.2595 14.92 24.9528 14.2933 25.8328 14.16C26.7395 14.0267 27.6595 14.36 28.5928 15.16ZM35.9609 19.08C36.7876 18.76 37.4409 18.52 37.9209 18.36C38.4009 18.2 38.8009 18.16 39.1209 18.24C39.4409 18.32 39.7343 18.52 40.0009 18.84C40.2676 19.16 40.6143 19.6267 41.0409 20.24C40.2409 21.1733 39.4143 22.12 38.5609 23.08C37.7343 24.0133 36.8543 25.0133 35.9209 26.08C36.4543 26.2933 36.9876 26.4133 37.5209 26.44C38.0543 26.44 38.5743 26.44 39.0809 26.44C39.6143 26.44 40.1209 26.48 40.6009 26.56C41.1076 26.6133 41.5876 26.8133 42.0409 27.16C41.3743 28.0933 40.6143 28.7067 39.7609 29C38.9343 29.2667 38.0276 29.3733 37.0409 29.32C36.9343 29.32 36.8143 29.4533 36.6809 29.72C36.5743 30.0133 36.4543 30.3733 36.3209 30.8C36.2143 31.2533 36.0943 31.7333 35.9609 32.24C35.8276 32.7733 35.6943 33.2533 35.5609 33.68C35.4543 34.1333 35.3476 34.5067 35.2409 34.8C35.1343 35.12 35.0276 35.28 34.9209 35.28C33.8809 35.36 33.0543 35.1467 32.4409 34.64C31.8276 34.16 31.4809 33.4133 31.4009 32.4C31.3743 32.1067 31.3609 31.4933 31.3609 30.56C31.3876 29.6267 31.4143 28.6267 31.4409 27.56C31.4676 26.4933 31.4943 25.4933 31.5209 24.56C31.5743 23.6267 31.6009 23.0133 31.6009 22.72C31.7076 18.5333 31.8676 14.3333 32.0809 10.12C32.1076 9.8 32.1743 9.45333 32.2809 9.08C32.4143 8.68 32.6009 8.41333 32.8409 8.28C33.2943 8.04 33.7343 8.02667 34.1609 8.24C34.5876 8.42667 34.9076 8.73333 35.1209 9.16C35.3343 9.53333 35.5076 9.94667 35.6409 10.4C35.8009 10.8267 35.8943 11.2533 35.9209 11.68C35.9743 12.9067 35.9876 14.1333 35.9609 15.36C35.9609 16.56 35.9609 17.8 35.9609 19.08ZM46.9866 23.48C46.6666 24.76 46.6666 25.68 46.9866 26.24C47.3066 26.8 48.0399 27.08 49.1866 27.08C50.0666 27.08 50.9466 27 51.8266 26.84C52.7332 26.6533 53.6532 26.4933 54.5866 26.36C55.0932 26.9733 54.9866 27.5733 54.2666 28.16C53.6532 28.6933 52.9066 29.04 52.0266 29.2C51.1732 29.3867 50.3066 29.4133 49.4266 29.28C48.5466 29.1733 47.7066 28.92 46.9066 28.52C46.1332 28.0933 45.4932 27.5467 44.9866 26.88C43.8666 25.44 43.2799 23.9733 43.2266 22.48C43.1999 20.9867 43.5066 19.44 44.1466 17.84C44.6266 16.6933 45.4666 16 46.6666 15.76C47.9199 15.4933 49.0666 15.56 50.1066 15.96C51.1466 16.3333 52.1066 16.9067 52.9866 17.68C53.7066 18.2933 54.0532 19.0533 54.0266 19.96C54.0266 20.8667 53.7066 21.8267 53.0666 22.84C52.5599 23.6133 51.9466 24.16 51.2266 24.48C50.5066 24.7733 49.7199 24.7733 48.8666 24.48C48.5732 24.3733 48.2799 24.24 47.9866 24.08C47.6932 23.8933 47.3599 23.6933 46.9866 23.48ZM47.3866 21.92C47.5999 21.9733 47.8132 22.0533 48.0266 22.16C48.2399 22.2667 48.3866 22.28 48.4666 22.2C48.8932 21.9067 49.2932 21.5867 49.6666 21.24C50.0666 20.8933 50.4399 20.52 50.7866 20.12C51.1332 19.72 51.3199 19.3067 51.3466 18.88C51.3732 18.4533 51.0799 18.0533 50.4666 17.68C50.0932 17.9733 49.7332 18.2533 49.3866 18.52C49.0399 18.7867 48.7199 19.08 48.4266 19.4C48.1332 19.72 47.8932 20.08 47.7066 20.48C47.5199 20.88 47.4132 21.36 47.3866 21.92ZM61.7172 31.36C62.0372 31.3067 62.3172 31.2667 62.5572 31.24C62.7972 31.2133 63.0639 31.1733 63.3572 31.12C63.4905 31.3333 63.6239 31.5333 63.7572 31.72C63.9172 31.9333 64.0239 32.1467 64.0772 32.36C64.2905 33 64.2105 33.4933 63.8372 33.84C63.4905 34.2133 62.9972 34.32 62.3572 34.16C61.6639 33.9733 61.0772 33.6667 60.5972 33.24C60.1172 32.84 59.6905 32.3467 59.3172 31.76C58.3039 30.1333 57.5705 28.4267 57.1172 26.64C56.6905 24.8533 56.5039 23.0267 56.5572 21.16C56.6105 18.9467 56.7572 16.7467 56.9972 14.56C57.2639 12.3467 57.5172 10.1333 57.7572 7.92C57.8105 7.6 57.9039 7.29333 58.0372 7C58.1705 6.68 58.3305 6.4 58.5172 6.16C58.6505 6 58.8505 5.89333 59.1172 5.84C59.3839 5.76 59.6105 5.74667 59.7972 5.8C60.5705 6.01333 61.1572 6.48 61.5572 7.2C61.9572 7.89333 62.0905 8.65333 61.9572 9.48C61.6905 11.4533 61.4372 13.4133 61.1972 15.36C60.9572 17.3067 60.6905 19.2533 60.3972 21.2C60.1039 22.9333 60.1172 24.6267 60.4372 26.28C60.7572 27.9067 61.1839 29.6 61.7172 31.36ZM63.4722 19.4C64.2989 19.5333 64.9922 19.68 65.5522 19.84C66.1122 20 66.5522 20.2133 66.8722 20.48C67.2189 20.72 67.4589 21.0267 67.5922 21.4C67.7255 21.7467 67.8055 22.2 67.8322 22.76C67.9655 25.48 67.5789 28.1867 66.6722 30.88C65.7922 30.5867 65.0589 30.1867 64.4722 29.68C63.8855 29.1733 63.5655 28.5067 63.5122 27.68C63.4055 26.32 63.3655 24.96 63.3922 23.6C63.4455 22.24 63.4722 20.84 63.4722 19.4ZM64.4322 14.6C64.4322 14.0667 64.4055 13.5333 64.3522 13C64.3255 12.4667 64.3655 11.9333 64.4722 11.4C64.5255 11.0533 64.6589 10.6533 64.8722 10.2C65.0855 9.74667 65.2989 9.52 65.5122 9.52C65.8855 9.46667 66.2855 9.54667 66.7122 9.76C67.1655 9.94667 67.5255 10.1867 67.7922 10.48C68.0055 10.72 68.1255 11.08 68.1522 11.56C68.1789 12.0133 68.1255 12.3867 67.9922 12.68C67.3255 14.0667 66.1389 14.7067 64.4322 14.6Z" fill="#1E2F97"/>
<rect x="26" width="4" height="5" rx="1" fill="#1E2F97"/>
<rect x="35" width="4" height="5" rx="1" fill="#1E2F97" fill-opacity="0.8"/>
<rect x="44" width="4" height="5" rx="1" fill="#1E2F97" fill-opacity="0.6"/>
<rect x="53" width="4" height="5" rx="1" fill="#1E2F97" fill-opacity="0.4"/>
<rect x="62" width="4" height="5" rx="1" fill="#8FFF00" fill-opacity="0.58"/>
</svg>
