<svg width="87" height="59" viewBox="0 0 87 59" fill="none" xmlns="http://www.w3.org/2000/svg">
<path d="M17.9 28.1C16.5333 28.0333 15.4 28 14.5 28C13.6333 27.9667 12.9 28 12.3 28.1C11.7333 28.2 11.2833 28.3833 10.95 28.65C10.6167 28.8833 10.3167 29.2167 10.05 29.65C9.81667 30.0833 9.56667 30.6333 9.3 31.3C9.06667 31.9333 8.75 32.7167 8.35 33.65C7.35 35.95 6.63333 38.3 6.2 40.7C5.76667 43.1 5.36667 45.5167 5 47.95C4.96667 48.1833 4.95 48.4 4.95 48.6C4.95 48.8 4.91667 49 4.85 49.2C4.68333 49.8 4.35 50.1833 3.85 50.35C3.38333 50.55 2.95 50.4333 2.55 50C2.08333 49.5333 1.68333 49.0167 1.35 48.45C1.01667 47.9167 0.933333 47.2667 1.1 46.5C1.63333 43.7667 2.25 41.0667 2.95 38.4C3.65 35.7333 4.55 33.1 5.65 30.5C5.91667 29.8333 6.1 29.1333 6.2 28.4C6.33333 27.6667 6.48333 26.8667 6.65 26C7.01667 25.3667 7.4 24.6833 7.8 23.95C8.23333 23.1833 8.63333 22.4 9 21.6C10.2667 18.8667 11.4833 16.15 12.65 13.45C13.85 10.7167 15.0833 8 16.35 5.3C16.95 4 17.5667 3.3 18.2 3.2C18.8667 3.1 19.7333 3.55 20.8 4.55C21.3667 5.08333 21.8833 5.65 22.35 6.25C22.85 6.81667 23.25 7.43333 23.55 8.1C23.85 8.73333 24.0667 9.43333 24.2 10.2C24.3333 10.9333 24.3333 11.7333 24.2 12.6C23.8 15.2667 23.4667 17.9167 23.2 20.55C22.9333 23.1833 22.6833 25.85 22.45 28.55C22.2833 30.6167 22.1667 32.6667 22.1 34.7C22.0333 36.7333 21.95 38.7833 21.85 40.85C21.85 41.1167 21.8333 41.3167 21.8 41.45C21.7667 41.7167 21.7333 42 21.7 42.3C21.7 42.6 21.65 42.8667 21.55 43.1C21.4833 43.3667 21.35 43.5833 21.15 43.75C20.95 43.9167 20.65 44.0167 20.25 44.05C19.9833 44.0833 19.7167 44.0167 19.45 43.85C19.1833 43.7167 18.9333 43.5167 18.7 43.25C18.4667 42.9833 18.2833 42.6667 18.15 42.3C18.0167 41.9667 17.95 41.6167 17.95 41.25C17.8833 39.85 17.8667 38.4667 17.9 37.1C17.9333 35.7 17.95 34.3 17.95 32.9C17.95 32.1333 17.9333 31.3667 17.9 30.6C17.9 29.8 17.9 28.9667 17.9 28.1ZM17.9 24.75C18.0667 22.7167 18.2333 20.75 18.4 18.85C18.5667 16.95 18.7333 14.9333 18.9 12.8C18.3333 13.5 17.7167 14.3833 17.05 15.45C16.4167 16.5167 15.8167 17.6333 15.25 18.8C14.6833 19.9333 14.2 21.0333 13.8 22.1C13.4 23.1333 13.15 23.9667 13.05 24.6C13.4167 24.6333 13.7667 24.6667 14.1 24.7C14.4333 24.7333 14.7833 24.7667 15.15 24.8C15.55 24.8 15.9667 24.8 16.4 24.8C16.8333 24.8 17.3333 24.7833 17.9 24.75ZM35.491 21.7C35.0243 22.5667 34.5743 23.3833 34.141 24.15C33.7077 24.9167 33.3077 25.6833 32.941 26.45C32.4743 27.4167 32.2743 28.3667 32.341 29.3C32.441 30.2333 32.7243 31.1667 33.191 32.1C33.7243 33.0667 34.241 34.0333 34.741 35C35.2743 35.9333 35.691 36.9 35.991 37.9C36.291 38.9333 36.441 39.8333 36.441 40.6C36.4743 41.4 36.3077 42.05 35.941 42.55C35.5743 43.05 34.9743 43.4 34.141 43.6C33.341 43.8 32.2577 43.8 30.891 43.6C29.291 43.3667 27.9577 42.7833 26.891 41.85C25.8243 40.95 25.1243 39.5833 24.791 37.75C26.0577 38.35 27.3243 38.7667 28.591 39C29.8577 39.2 31.1743 38.9667 32.541 38.3C32.7077 37.2333 32.5743 36.2667 32.141 35.4C31.741 34.5 31.341 33.6167 30.941 32.75C30.6743 32.1833 30.391 31.6167 30.091 31.05C29.8243 30.45 29.5743 29.85 29.341 29.25C29.141 28.65 28.991 28.0333 28.891 27.4C28.791 26.7667 28.7743 26.1167 28.841 25.45C28.9077 24.9833 28.9743 24.5333 29.041 24.1C29.141 23.6333 29.2743 23.2 29.441 22.8C30.0743 21.4 30.941 20.6167 32.041 20.45C33.1743 20.2833 34.3243 20.7 35.491 21.7ZM44.7012 26.6C45.7345 26.2 46.5512 25.9 47.1512 25.7C47.7512 25.5 48.2512 25.45 48.6512 25.55C49.0512 25.65 49.4178 25.9 49.7512 26.3C50.0845 26.7 50.5178 27.2833 51.0512 28.05C50.0512 29.2167 49.0178 30.4 47.9512 31.6C46.9178 32.7667 45.8178 34.0167 44.6512 35.35C45.3178 35.6167 45.9845 35.7667 46.6512 35.8C47.3178 35.8 47.9678 35.8 48.6012 35.8C49.2678 35.8 49.9012 35.85 50.5012 35.95C51.1345 36.0167 51.7345 36.2667 52.3012 36.7C51.4678 37.8667 50.5178 38.6333 49.4512 39C48.4178 39.3333 47.2845 39.4667 46.0512 39.4C45.9178 39.4 45.7678 39.5667 45.6012 39.9C45.4678 40.2667 45.3178 40.7167 45.1512 41.25C45.0178 41.8167 44.8678 42.4167 44.7012 43.05C44.5345 43.7167 44.3678 44.3167 44.2012 44.85C44.0678 45.4167 43.9345 45.8833 43.8012 46.25C43.6678 46.65 43.5345 46.85 43.4012 46.85C42.1012 46.95 41.0678 46.6833 40.3012 46.05C39.5345 45.45 39.1012 44.5167 39.0012 43.25C38.9678 42.8833 38.9512 42.1167 38.9512 40.95C38.9845 39.7833 39.0178 38.5333 39.0512 37.2C39.0845 35.8667 39.1178 34.6167 39.1512 33.45C39.2178 32.2833 39.2512 31.5167 39.2512 31.15C39.3845 25.9167 39.5845 20.6667 39.8512 15.4C39.8845 15 39.9678 14.5667 40.1012 14.1C40.2678 13.6 40.5012 13.2667 40.8012 13.1C41.3678 12.8 41.9178 12.7833 42.4512 13.05C42.9845 13.2833 43.3845 13.6667 43.6512 14.2C43.9178 14.6667 44.1345 15.1833 44.3012 15.75C44.5012 16.2833 44.6178 16.8167 44.6512 17.35C44.7178 18.8833 44.7345 20.4167 44.7012 21.95C44.7012 23.45 44.7012 25 44.7012 26.6ZM58.4832 32.1C58.0832 33.7 58.0832 34.85 58.4832 35.55C58.8832 36.25 59.7999 36.6 61.2332 36.6C62.3332 36.6 63.4332 36.5 64.5332 36.3C65.6665 36.0667 66.8165 35.8667 67.9832 35.7C68.6165 36.4667 68.4832 37.2167 67.5832 37.95C66.8165 38.6167 65.8832 39.05 64.7832 39.25C63.7165 39.4833 62.6332 39.5167 61.5332 39.35C60.4332 39.2167 59.3832 38.9 58.3832 38.4C57.4165 37.8667 56.6165 37.1833 55.9832 36.35C54.5832 34.55 53.8499 32.7167 53.7832 30.85C53.7499 28.9833 54.1332 27.05 54.9332 25.05C55.5332 23.6167 56.5832 22.75 58.0832 22.45C59.6499 22.1167 61.0832 22.2 62.3832 22.7C63.6832 23.1667 64.8832 23.8833 65.9832 24.85C66.8832 25.6167 67.3165 26.5667 67.2832 27.7C67.2832 28.8333 66.8832 30.0333 66.0832 31.3C65.4499 32.2667 64.6832 32.95 63.7832 33.35C62.8832 33.7167 61.8999 33.7167 60.8332 33.35C60.4665 33.2167 60.0999 33.05 59.7332 32.85C59.3665 32.6167 58.9499 32.3667 58.4832 32.1ZM58.9832 30.15C59.2499 30.2167 59.5165 30.3167 59.7832 30.45C60.0499 30.5833 60.2332 30.6 60.3332 30.5C60.8665 30.1333 61.3665 29.7333 61.8332 29.3C62.3332 28.8667 62.7999 28.4 63.2332 27.9C63.6665 27.4 63.8999 26.8833 63.9332 26.35C63.9665 25.8167 63.5999 25.3167 62.8332 24.85C62.3665 25.2167 61.9165 25.5667 61.4832 25.9C61.0499 26.2333 60.6499 26.6 60.2832 27C59.9165 27.4 59.6165 27.85 59.3832 28.35C59.1499 28.85 59.0165 29.45 58.9832 30.15ZM76.8965 41.95C77.2965 41.8833 77.6465 41.8333 77.9465 41.8C78.2465 41.7667 78.5798 41.7167 78.9465 41.65C79.1132 41.9167 79.2798 42.1667 79.4465 42.4C79.6465 42.6667 79.7798 42.9333 79.8465 43.2C80.1132 44 80.0132 44.6167 79.5465 45.05C79.1132 45.5167 78.4965 45.65 77.6965 45.45C76.8298 45.2167 76.0965 44.8333 75.4965 44.3C74.8965 43.8 74.3632 43.1833 73.8965 42.45C72.6298 40.4167 71.7132 38.2833 71.1465 36.05C70.6132 33.8167 70.3798 31.5333 70.4465 29.2C70.5132 26.4333 70.6965 23.6833 70.9965 20.95C71.3298 18.1833 71.6465 15.4167 71.9465 12.65C72.0132 12.25 72.1298 11.8667 72.2965 11.5C72.4632 11.1 72.6632 10.75 72.8965 10.45C73.0632 10.25 73.3132 10.1167 73.6465 10.05C73.9798 9.95 74.2632 9.93333 74.4965 10C75.4632 10.2667 76.1965 10.85 76.6965 11.75C77.1965 12.6167 77.3632 13.5667 77.1965 14.6C76.8632 17.0667 76.5465 19.5167 76.2465 21.95C75.9465 24.3833 75.6132 26.8167 75.2465 29.25C74.8798 31.4167 74.8965 33.5333 75.2965 35.6C75.6965 37.6333 76.2298 39.75 76.8965 41.95ZM79.0902 27C80.1236 27.1667 80.9902 27.35 81.6902 27.55C82.3902 27.75 82.9402 28.0167 83.3402 28.35C83.7736 28.65 84.0736 29.0333 84.2402 29.5C84.4069 29.9333 84.5069 30.5 84.5402 31.2C84.7069 34.6 84.2236 37.9833 83.0902 41.35C81.9902 40.9833 81.0736 40.4833 80.3402 39.85C79.6069 39.2167 79.2069 38.3833 79.1402 37.35C79.0069 35.65 78.9569 33.95 78.9902 32.25C79.0569 30.55 79.0902 28.8 79.0902 27ZM80.2902 21C80.2902 20.3333 80.2569 19.6667 80.1902 19C80.1569 18.3333 80.2069 17.6667 80.3402 17C80.4069 16.5667 80.5736 16.0667 80.8402 15.5C81.1069 14.9333 81.3736 14.65 81.6402 14.65C82.1069 14.5833 82.6069 14.6833 83.1402 14.95C83.7069 15.1833 84.1569 15.4833 84.4902 15.85C84.7569 16.15 84.9069 16.6 84.9402 17.2C84.9736 17.7667 84.9069 18.2333 84.7402 18.6C83.9069 20.3333 82.4236 21.1333 80.2902 21Z" fill="white"/>
<rect x="37" width="4" height="5" rx="1" fill="#FDFDFD"/>
<rect x="46" width="4" height="5" rx="1" fill="#BBC0DF" fill-opacity="0.8"/>
<rect x="55" width="4" height="5" rx="1" fill="#858EC4" fill-opacity="0.6"/>
<rect x="64" width="4" height="5" rx="1" fill="#8291F1" fill-opacity="0.4"/>
<rect x="73" width="4" height="5" rx="1" fill="#8FFF00" fill-opacity="0.58"/>
</svg>
